<svg xmlns="http://www.w3.org/2000/svg" width="400" height="500" viewBox="0 0 400 500"><defs><radialGradient id="glow" cx="50%" cy="40%" r="50%"><stop offset="0%" stop-color="#f4a261" stop-opacity=".3"/><stop offset="100%" stop-color="#f4a261" stop-opacity="0"/></radialGradient><linearGradient id="moonGrad" x1="0%" x2="100%" y1="0%" y2="100%"><stop offset="0%" stop-color="#e8e8f0"/><stop offset="100%" stop-color="#8888a0"/></linearGradient><linearGradient id="eyeGrad" x1="0%" x2="100%" y1="0%" y2="100%"><stop offset="0%" stop-color="#e63946"/><stop offset="100%" stop-color="#9b1c2a"/></linearGradient></defs><rect width="400" height="500" fill="url(#glow)"/><g transform="translate(200,140)"><circle r="50" fill="url(#moonGrad)" opacity=".9"/><circle cx="20" cy="-10" r="50" fill="#0a0a0f"/></g><g transform="translate(200,260)"><ellipse fill="none" stroke="#e8e8f0" stroke-width="2" rx="40" ry="20"/><circle r="12" fill="url(#eyeGrad)"/><circle cx="0" cy="0" r="5" fill="#0a0a0f"/><circle cx="3" cy="-3" r="2" fill="#e8e8f0" opacity=".8"/></g><g fill="none" stroke="#00d4ff" stroke-width="2" opacity=".8"><line x1="160" x2="240" y1="380" y2="340"/><line x1="240" x2="160" y1="380" y2="340"/><circle cx="160" cy="380" r="4" fill="#00d4ff"/><circle cx="240" cy="380" r="4" fill="#00d4ff"/><circle cx="160" cy="340" r="4" fill="#00d4ff"/><circle cx="240" cy="340" r="4" fill="#00d4ff"/><circle cx="200" cy="380" r="4" fill="#e63946"/></g><text x="200" y="430" fill="#f4a261" font-family="JetBrains Mono, monospace" font-size="14" letter-spacing="3" text-anchor="middle">L&apos;ÉVEIL</text><text x="200" y="455" fill="#f4a261" font-family="JetBrains Mono, monospace" font-size="14" letter-spacing="3" text-anchor="middle">NOCTURNE</text><text x="200" y="485" fill="#8888a0" font-family="JetBrains Mono, monospace" font-size="9" letter-spacing="2" text-anchor="middle">2026</text></svg>